{
  "accessors": [
    {
      "bufferView": 2,
      "componentType": 5126,
      "count": 1984,
      "max": [
        1.000000238418579,
        1.0,
        1.0
      ],
      "min": [
        -0.9999998211860657,
        -1.0000003576278687,
        -1.0
      ],
      "type": "VEC3"
    },
    {
      "bufferView": 2,
      "byteOffset": 23808,
      "componentType": 5126,
      "count": 1984,
      "max": [
        0.9904382824897766,
        0.9904384016990662,
        0.9951385259628296
      ],
      "min": [
        -0.9904382824897766,
        -0.9904383420944214,
        -0.9951385259628296
      ],
      "type": "VEC3"
    },
    {
      "bufferView": 1,
      "componentType": 5126,
      "count": 1984,
      "max": [
        1.000000238418579,
        1.0
      ],
      "min": [
        0.0,
        0.0
      ],
      "type": "VEC2"
    },
    {
      "bufferView": 0,
      "componentType": 5125,
      "count": 2880,
      "type": "SCALAR"
    },
    {
      "bufferView": 2,
      "byteOffset": 47616,
      "componentType": 5126,
      "count": 2112,
      "max": [
        0.018619036301970482,
        1.0,
        1.0
      ],
      "min": [
        -0.9999998211860657,
        -1.0000003576278687,
        -1.0
      ],
      "type": "VEC3"
    },
    {
      "bufferView": 2,
      "byteOffset": 72960,
      "componentType": 5126,
      "count": 2112,
      "max": [
        0.9995262622833252,
        0.990919291973114,
        0.9956547617912292
      ],
      "min": [
        -0.9904382824897766,
        -0.9909190535545349,
        -0.9956547617912292
      ],
      "type": "VEC3"
    },
    {
      "bufferView": 1,
      "byteOffset": 15872,
      "componentType": 5126,
      "count": 2112,
      "max": [
        1.000000238418579,
        1.0
      ],
      "min": [
        0.0,
        0.0
      ],
      "type": "VEC2"
    },
    {
      "bufferView": 0,
      "byteOffset": 11520,
      "componentType": 5125,
      "count": 3072,
      "type": "SCALAR"
    },
    {
      "bufferView": 2,
      "byteOffset": 98304,
      "componentType": 5126,
      "count": 2112,
      "max": [
        0.04213781654834747,
        1.0,
        1.0
      ],
      "min": [
        -0.9999998211860657,
        -1.0000003576278687,
        -1.0
      ],
      "type": "VEC3"
    },
    {
      "bufferView": 2,
      "byteOffset": 123648,
      "componentType": 5126,
      "count": 2112,
      "max": [
        0.9992419481277466,
        0.9916270971298218,
        0.9965193867683411
      ],
      "min": [
        -0.9904382824897766,
        -0.9916268587112427,
        -0.9965193271636963
      ],
      "type": "VEC3"
    },
    {
      "bufferView": 1,
      "byteOffset": 32768,
      "componentType": 5126,
      "count": 2112,
      "max": [
        1.000000238418579,
        1.0
      ],
      "min": [
        0.0,
        0.0
      ],
      "type": "VEC2"
    },
    {
      "bufferView": 0,
      "byteOffset": 23808,
      "componentType": 5125,
      "count": 3072,
      "type": "SCALAR"
    },
    {
      "bufferView": 2,
      "byteOffset": 148992,
      "componentType": 5126,
      "count": 992,
      "max": [
        2.7218476361667854e-07,
        1.0,
        1.0
      ],
      "min": [
        -0.9999998211860657,
        -1.0000003576278687,
        -1.0
      ],
      "type": "VEC3"
    },
    {
      "bufferView": 2,
      "byteOffset": 160896,
      "componentType": 5126,
      "count": 992,
      "max": [
        -0.009652790613472462,
        0.9904379844665527,
        0.9951385259628296
      ],
      "min": [
        -0.9904382824897766,
        -0.9904381632804871,
        -0.9951384663581848
      ],
      "type": "VEC3"
    },
    {
      "bufferView": 1,
      "byteOffset": 49664,
      "componentType": 5126,
      "count": 992,
      "max": [
        1.000000238418579,
        1.0
      ],
      "min": [
        0.0,
        0.0
      ],
      "type": "VEC2"
    },
    {
      "bufferView": 0,
      "byteOffset": 36096,
      "componentType": 5125,
      "count": 1440,
      "type": "SCALAR"
    },
    {
      "bufferView": 2,
      "byteOffset": 172800,
      "componentType": 5126,
      "count": 1120,
      "max": [
        0.0029398472979664803,
        1.0,
        1.0
      ],
      "min": [
        -0.9699998497962952,
        -1.0000003576278687,
        -1.0
      ],
      "type": "VEC3"
    },
    {
      "bufferView": 2,
      "byteOffset": 186240,
      "componentType": 5126,
      "count": 1120,
      "max": [
        0.9995751976966858,
        0.9905098676681519,
        0.9952123165130615
      ],
      "min": [
        0.00966048426926136,
        -0.9905095100402832,
        -0.9952122569084167
      ],
      "type": "VEC3"
    },
    {
      "bufferView": 1,
      "byteOffset": 57600,
      "componentType": 5126,
      "count": 1120,
      "max": [
        1.000000238418579,
        1.0
      ],
      "min": [
        0.0,
        0.0
      ],
      "type": "VEC2"
    },
    {
      "bufferView": 0,
      "byteOffset": 41856,
      "componentType": 5125,
      "count": 1632,
      "type": "SCALAR"
    },
    {
      "bufferView": 2,
      "byteOffset": 199680,
      "componentType": 5126,
      "count": 837,
      "max": [
        2.943000078201294,
        0.6820000410079956,
        0.0
      ],
      "min": [
        0.05700000375509262,
        -1.0089999437332153,
        0.0
      ],
      "type": "VEC3"
    },
    {
      "bufferView": 2,
      "byteOffset": 209724,
      "componentType": 5126,
      "count": 837,
      "max": [
        0.0,
        0.0,
        1.0
      ],
      "min": [
        0.0,
        0.0,
        1.0
      ],
      "type": "VEC3"
    },
    {
      "bufferView": 0,
      "byteOffset": 48384,
      "componentType": 5125,
      "count": 2445,
      "type": "SCALAR"
    },
    {
      "bufferView": 2,
      "byteOffset": 219768,
      "componentType": 5126,
      "count": 839,
      "max": [
        3.20300030708313,
        0.6820000410079956,
        0.0
      ],
      "min": [
        0.04100000113248825,
        -1.0089999437332153,
        0.0
      ],
      "type": "VEC3"
    },
    {
      "bufferView": 2,
      "byteOffset": 229836,
      "componentType": 5126,
      "count": 839,
      "max": [
        0.0,
        0.0,
        1.0
      ],
      "min": [
        0.0,
        0.0,
        1.0
      ],
      "type": "VEC3"
    },
    {
      "bufferView": 0,
      "byteOffset": 58164,
      "componentType": 5125,
      "count": 2463,
      "type": "SCALAR"
    },
    {
      "bufferView": 2,
      "byteOffset": 239904,
      "componentType": 5126,
      "count": 400,
      "max": [
        2.557000160217285,
        0.6820000410079956,
        0.0
      ],
      "min": [
        0.07300000637769699,
        -0.009000000543892384,
        0.0
      ],
      "type": "VEC3"
    },
    {
      "bufferView": 2,
      "byteOffset": 244704,
      "componentType": 5126,
      "count": 400,
      "max": [
        0.0,
        0.0,
        1.0
      ],
      "min": [
        0.0,
        0.0,
        1.0
      ],
      "type": "VEC3"
    },
    {
      "bufferView": 0,
      "byteOffset": 68016,
      "componentType": 5125,
      "count": 1176,
      "type": "SCALAR"
    },
    {
      "bufferView": 2,
      "byteOffset": 249504,
      "componentType": 5126,
      "count": 1426,
      "max": [
        3.6430001258850098,
        0.6910000443458557,
        0.0
      ],
      "min": [
        0.0,
        -1.0089999437332153,
        0.0
      ],
      "type": "VEC3"
    },
    {
      "bufferView": 2,
      "byteOffset": 266616,
      "componentType": 5126,
      "count": 1426,
      "max": [
        0.0,
        0.0,
        1.0
      ],
      "min": [
        0.0,
        0.0,
        1.0
      ],
      "type": "VEC3"
    },
    {
      "bufferView": 0,
      "byteOffset": 72720,
      "componentType": 5125,
      "count": 4200,
      "type": "SCALAR"
    }
  ],
  "asset": {
    "extras": {
      "author": "joserogelioverdugolopez (https://sketchfab.com/joserogelioverdugolopez)",
      "license": "CC-BY-4.0 (http://creativecommons.org/licenses/by/4.0/)",
      "source": "https://sketchfab.com/3d-models/capas-internas-de-la-tierra-5c646f87b25749909e752012a6a1b4e6",
      "title": "Capas internas de la Tierra"
    },
    "generator": "Sketchfab-12.66.0",
    "version": "2.0"
  },
  "bufferViews": [
    {
      "buffer": 0,
      "byteLength": 89520,
      "name": "floatBufferViews",
      "target": 34963
    },
    {
      "buffer": 0,
      "byteLength": 66560,
      "byteOffset": 89520,
      "byteStride": 8,
      "name": "floatBufferViews",
      "target": 34962
    },
    {
      "buffer": 0,
      "byteLength": 283728,
      "byteOffset": 156080,
      "byteStride": 12,
      "name": "floatBufferViews",
      "target": 34962
    }
  ],
  "buffers": [
    {
      "byteLength": 439808,
      "uri": "scene.bin"
    }
  ],
  "images": [
    {
      "uri": "textures/Material_baseColor.jpeg"
    },
    {
      "uri": "textures/EXTERIOR_baseColor.jpeg"
    },
    {
      "uri": "textures/CNUCLEO_EXTERNMO_baseColor.jpeg"
    },
    {
      "uri": "textures/CORTESA_baseColor.jpeg"
    },
    {
      "uri": "textures/interno_cortesa_baseColor.jpeg"
    }
  ],
  "materials": [
    {
      "doubleSided": true,
      "name": "Text.001__0",
      "pbrMetallicRoughness": {
        "metallicFactor": 0.0,
        "roughnessFactor": 0.6
      }
    },
    {
      "doubleSided": true,
      "emissiveFactor": [
        1.0,
        0.4918614941697439,
        0.0
      ],
      "name": "Material",
      "pbrMetallicRoughness": {
        "baseColorTexture": {
          "index": 0
        },
        "metallicFactor": 0.0,
        "roughnessFactor": 0.8040408205773457
      }
    },
    {
      "doubleSided": true,
      "emissiveFactor": [
        0.01714939024390244,
        0.000798466558849496,
        0.000798466558849496
      ],
      "name": "EXTERIOR",
      "pbrMetallicRoughness": {
        "baseColorTexture": {
          "index": 1
        },
        "metallicFactor": 0.0,
        "roughnessFactor": 0.8211145618000169
      }
    },
    {
      "doubleSided": true,
      "emissiveFactor": [
        0.44397865853658536,
        0.061491909920335035,
        0.01016888656333764
      ],
      "name": "CNUCLEO_EXTERNMO",
      "pbrMetallicRoughness": {
        "baseColorTexture": {
          "index": 2
        },
        "metallicFactor": 0.0,
        "roughnessFactor": 0.8211145618000169
      }
    },
    {
      "doubleSided": true,
      "emissiveFactor": [
        0.05742835552480702,
        0.12785430087583877,
        0.37153899350833813
      ],
      "name": "CORTESA",
      "pbrMetallicRoughness": {
        "baseColorTexture": {
          "index": 3
        },
        "metallicFactor": 0.0,
        "roughnessFactor": 0.8211145618000169
      }
    },
    {
      "doubleSided": true,
      "name": "interno_cortesa",
      "pbrMetallicRoughness": {
        "baseColorTexture": {
          "index": 4
        },
        "metallicFactor": 0.0,
        "roughnessFactor": 0.8235706942851433
      }
    },
    {
      "doubleSided": true,
      "name": "material_0",
      "pbrMetallicRoughness": {
        "metallicFactor": 0.0,
        "roughnessFactor": 0.8211145618000169
      }
    }
  ],
  "meshes": [
    {
      "name": "Sphere_Material_0",
      "primitives": [
        {
          "attributes": {
            "NORMAL": 1,
            "POSITION": 0,
            "TEXCOORD_0": 2
          },
          "indices": 3,
          "material": 1,
          "mode": 4
        }
      ]
    },
    {
      "name": "Sphere.001_EXTERIOR_0",
      "primitives": [
        {
          "attributes": {
            "NORMAL": 5,
            "POSITION": 4,
            "TEXCOORD_0": 6
          },
          "indices": 7,
          "material": 2,
          "mode": 4
        }
      ]
    },
    {
      "name": "Sphere.002_C}NUCLEO EXTERNMO_0",
      "primitives": [
        {
          "attributes": {
            "NORMAL": 9,
            "POSITION": 8,
            "TEXCOORD_0": 10
          },
          "indices": 11,
          "material": 3,
          "mode": 4
        }
      ]
    },
    {
      "name": "Sphere.003_CORTESA_0",
      "primitives": [
        {
          "attributes": {
            "NORMAL": 13,
            "POSITION": 12,
            "TEXCOORD_0": 14
          },
          "indices": 15,
          "material": 4,
          "mode": 4
        }
      ]
    },
    {
      "name": "Sphere.003_interno cortesa_0",
      "primitives": [
        {
          "attributes": {
            "NORMAL": 17,
            "POSITION": 16,
            "TEXCOORD_0": 18
          },
          "indices": 19,
          "material": 5,
          "mode": 4
        }
      ]
    },
    {
      "name": "Text_Material.001_0",
      "primitives": [
        {
          "attributes": {
            "NORMAL": 21,
            "POSITION": 20
          },
          "indices": 22,
          "material": 6,
          "mode": 4
        }
      ]
    },
    {
      "name": "Text.001__0",
      "primitives": [
        {
          "attributes": {
            "NORMAL": 24,
            "POSITION": 23
          },
          "indices": 25,
          "material": 0,
          "mode": 4
        }
      ]
    },
    {
      "name": "Text.002__0",
      "primitives": [
        {
          "attributes": {
            "NORMAL": 27,
            "POSITION": 26
          },
          "indices": 28,
          "material": 0,
          "mode": 4
        }
      ]
    },
    {
      "name": "Text.003__0",
      "primitives": [
        {
          "attributes": {
            "NORMAL": 30,
            "POSITION": 29
          },
          "indices": 31,
          "material": 0,
          "mode": 4
        }
      ]
    }
  ],
  "nodes": [
    {
      "children": [
        1
      ],
      "matrix": [
        1.0,
        0.0,
        0.0,
        0.0,
        0.0,
        2.220446049250313e-16,
        -1.0,
        0.0,
        0.0,
        1.0,
        2.220446049250313e-16,
        0.0,
        0.0,
        0.0,
        0.0,
        1.0
      ],
      "name": "Sketchfab_model"
    },
    {
      "children": [
        2
      ],
      "matrix": [
        1.0,
        0.0,
        0.0,
        0.0,
        0.0,
        0.0,
        1.0,
        0.0,
        0.0,
        -1.0,
        0.0,
        0.0,
        0.0,
        0.0,
        0.0,
        1.0
      ],
      "name": "a0676e5f26c24580ab6e05f2d90159d1.fbx"
    },
    {
      "children": [
        3,
        6,
        8,
        10,
        12,
        14,
        17,
        19,
        21,
        23
      ],
      "name": "RootNode"
    },
    {
      "children": [
        4
      ],
      "matrix": [
        -29.08647719990347,
        -5.518906457566863,
        -95.51711910171437,
        0.0,
        56.63930913109449,
        79.46723428563203,
        -21.83912397841966,
        0.0,
        77.11008775993375,
        -60.45246356562044,
        -19.98834696773717,
        0.0,
        407.6245422363281,
        590.38623046875,
        -100.54539489746094,
        1.0
      ],
      "name": "Light"
    },
    {
      "children": [
        5
      ],
      "matrix": [
        1.0,
        0.0,
        0.0,
        0.0,
        0.0,
        2.220446049250313e-16,
        1.0,
        0.0,
        0.0,
        -1.0,
        2.220446049250313e-16,
        0.0,
        0.0,
        0.0,
        0.0,
        1.0
      ],
      "name": "Object_4"
    },
    {
      "name": "Object_5"
    },
    {
      "children": [
        7
      ],
      "matrix": [
        -65.15583280329096,
        -44.52713576570858,
        -61.41703047373549,
        0.0,
        -32.40134137821245,
        89.53957451233616,
        -30.542088974418615,
        0.0,
        68.59205472129975,
        -1.0718647115348782e-05,
        -72.7676336239627,
        0.0,
        735.88916015625,
        495.8309326171875,
        692.5791015625,
        1.0
      ],
      "name": "Camera"
    },
    {
      "name": "Object_7"
    },
    {
      "children": [
        9
      ],
      "matrix": [
        100.0,
        0.0,
        0.0,
        0.0,
        0.0,
        -1.629206793918314e-05,
        -99.99999999999868,
        0.0,
        0.0,
        99.99999999999868,
        -1.629206793918314e-05,
        0.0,
        0.0,
        0.0,
        0.0,
        1.0
      ],
      "name": "Sphere"
    },
    {
      "mesh": 0,
      "name": "Sphere_Material_0"
    },
    {
      "children": [
        11
      ],
      "matrix": [
        341.36053466796875,
        0.0,
        0.0,
        0.0,
        -0.0,
        -5.561469022566429e-05,
        -341.36053466796426,
        0.0,
        0.0,
        341.36053466796426,
        -5.561469022566429e-05,
        0.0,
        -168.0342254638672,
        0.0,
        0.0,
        1.0
      ],
      "name": "Sphere.001"
    },
    {
      "mesh": 1,
      "name": "Sphere.001_EXTERIOR_0"
    },
    {
      "children": [
        13
      ],
      "matrix": [
        242.04745483398438,
        0.0,
        0.0,
        0.0,
        -0.0,
        -3.943453578661636e-05,
        -242.04745483398116,
        0.0,
        0.0,
        242.04745483398116,
        -3.943453578661636e-05,
        0.0,
        -65.3218002319336,
        -1.0904016494750977,
        0.0,
        1.0
      ],
      "name": "Sphere.002"
    },
    {
      "mesh": 2,
      "name": "Sphere.002_C}NUCLEO EXTERNMO_0"
    },
    {
      "children": [
        15,
        16
      ],
      "matrix": [
        383.1277770996094,
        0.0,
        0.0,
        0.0,
        -0.0,
        -6.24194377389505e-05,
        -383.1277770996043,
        0.0,
        0.0,
        383.1277770996043,
        -6.24194377389505e-05,
        0.0,
        -238.5521697998047,
        0.0,
        0.0,
        1.0
      ],
      "name": "Sphere.003"
    },
    {
      "mesh": 3,
      "name": "Sphere.003_CORTESA_0"
    },
    {
      "mesh": 4,
      "name": "Sphere.003_interno cortesa_0"
    },
    {
      "children": [
        18
      ],
      "matrix": [
        28.750522113569872,
        2.6792851923191773e-13,
        -41.05998929339538,
        0.0,
        -3.099943192945696e-06,
        50.12499618530259,
        -2.170603875535244e-06,
        0.0,
        41.05998929339526,
        3.784332039340484e-06,
        28.75052211356979,
        0.0,
        13.057632446289063,
        149.4881134033203,
        2.798698902130127,
        1.0
      ],
      "name": "Text"
    },
    {
      "mesh": 5,
      "name": "Text_Material.001_0"
    },
    {
      "children": [
        20
      ],
      "matrix": [
        28.750522113569872,
        2.6792851923191773e-13,
        -41.05998929339538,
        0.0,
        -3.099943192945696e-06,
        50.12499618530259,
        -2.170603875535244e-06,
        0.0,
        41.05998929339526,
        3.784332039340484e-06,
        28.75052211356979,
        0.0,
        -66.16465759277344,
        279.8311462402344,
        60.691619873046875,
        1.0
      ],
      "name": "Text.001"
    },
    {
      "mesh": 6,
      "name": "Text.001__0"
    },
    {
      "children": [
        22
      ],
      "matrix": [
        28.750522113569872,
        2.6792851923191773e-13,
        -41.05998929339538,
        0.0,
        -3.099943192945696e-06,
        50.12499618530259,
        -2.170603875535244e-06,
        0.0,
        41.05998929339526,
        3.784332039340484e-06,
        28.75052211356979,
        0.0,
        -168.08920288085938,
        338.0126647949219,
        -63.77420425415039,
        1.0
      ],
      "name": "Text.002"
    },
    {
      "mesh": 7,
      "name": "Text.002__0"
    },
    {
      "children": [
        24
      ],
      "matrix": [
        28.750522113569872,
        2.6792851923191773e-13,
        -41.05998929339538,
        0.0,
        -3.099943192945696e-06,
        50.12499618530259,
        -2.170603875535244e-06,
        0.0,
        41.05998929339526,
        3.784332039340484e-06,
        28.75052211356979,
        0.0,
        -258.35565185546875,
        433.53887939453125,
        -5.2487077713012695,
        1.0
      ],
      "name": "Text.003"
    },
    {
      "mesh": 8,
      "name": "Text.003__0"
    }
  ],
  "samplers": [
    {
      "magFilter": 9729,
      "minFilter": 9987,
      "wrapS": 10497,
      "wrapT": 10497
    }
  ],
  "scene": 0,
  "scenes": [
    {
      "name": "Sketchfab_Scene",
      "nodes": [
        0
      ]
    }
  ],
  "textures": [
    {
      "sampler": 0,
      "source": 0
    },
    {
      "sampler": 0,
      "source": 1
    },
    {
      "sampler": 0,
      "source": 2
    },
    {
      "sampler": 0,
      "source": 3
    },
    {
      "sampler": 0,
      "source": 4
    }
  ]
}
